<?xml version="1.0" encoding="utf-8"?>
<!-- Generator: Adobe Illustrator 16.0.3, SVG Export Plug-In . SVG Version: 6.00 Build 0)  -->
<!DOCTYPE svg PUBLIC "-//W3C//DTD SVG 1.1//EN" "http://www.w3.org/Graphics/SVG/1.1/DTD/svg11.dtd">
<svg version="1.1" id="Capa_1" xmlns="http://www.w3.org/2000/svg" xmlns:xlink="http://www.w3.org/1999/xlink" x="0px" y="0px"
	 width="523.545px" height="560px" viewBox="0 0 523.545 560" enable-background="new 0 0 523.545 560" xml:space="preserve">
<g>
	<linearGradient id="SVGID_1_" gradientUnits="userSpaceOnUse" x1="33.8892" y1="281.9521" x2="523.5449" y2="281.9521">
		<stop  offset="0" style="stop-color:#1038a8"/>
		<stop  offset="1" style="stop-color:#0a1f58"/>
		
	</linearGradient>
	<path fill-rule="evenodd" clip-rule="evenodd" fill="url(#SVGID_1_)" d="M199.016,295.108
		c43.978-63.534,68.375-104.818,68.375-104.818s23.649,37.287,66.551,105.595c21.695-45.054,58.329-111.759,58.329-111.759
		c11.809-5.292,42.727,9.714,38.833,17.824c-4.062,8.477-8.835,18.182-14.032,28.605c-31.313,62.825-78.087,151.578-78.087,151.578
		s-57.189-96.115-71.895-111.743c-17.2,15.188-70.4,112.277-70.4,112.277l-88.512-135.394H87.75c0,0,0.088,43.655-0.073,50.17
		c-2.299,103.853-0.543,196.455-0.543,196.455s85.634,2.451,155.765,2.409c49.129,0,98.29,1.206,147.383-0.682
		c53.237-2.028,76.894-30.45,78.576-96.57c1.897-73.974,1.421-148.071,0.47-222.103c-0.967-73.68-23.212-103.304-82.786-104.848
		c-87.706-2.255-350.119-1.471-350.119-1.471L35.685,3.102c0,0,254.69-1.449,338.882,0.008
		c102.637,1.778,147.734,58.725,148.416,185.043c0.408,71.873,1.258,143.775-0.534,215.581
		c-2.372,94.652-50.368,154.185-126.742,156.139c-78.907,1.997-157.946,2.274-236.853-0.256
		c-37.485-1.188-124.78-0.572-124.78-0.572s2.364-107.176,0.762-151.841c-1.538-43.458,0-87.083-0.71-130.622
		c-0.499-28.752-0.051-97.886-0.051-97.886l90.838,1.032C124.912,179.729,165.288,247.274,199.016,295.108z"/>
	<path fill-rule="evenodd" clip-rule="evenodd" fill="#FFC92A" d="M67.421,36.817c0,18.606-15.085,33.7-33.706,33.7
		C15.086,70.517,0,55.423,0,36.817C0,18.188,15.086,3.102,33.715,3.102C52.336,3.102,67.421,18.188,67.421,36.817z"/>
	<path fill-rule="evenodd" clip-rule="evenodd" fill="#FFC92A" d="M453.07,202.632c0,27.412-22.229,49.643-49.649,49.643
		c-27.413,0-49.636-22.231-49.636-49.643c0-27.413,22.223-49.644,49.636-49.644C430.841,152.988,453.07,175.219,453.07,202.632z"/>
</g>
</svg>
